<svg xmlns:dc="http://purl.org/dc/elements/1.1/" xmlns:cc="http://creativecommons.org/ns#" xmlns:rdf="http://www.w3.org/1999/02/22-rdf-syntax-ns#" xmlns:svg="http://www.w3.org/2000/svg" xmlns="http://www.w3.org/2000/svg" xmlns:sodipodi="http://sodipodi.sourceforge.net/DTD/sodipodi-0.dtd" xmlns:inkscape="http://www.inkscape.org/namespaces/inkscape" version="1.1" x="0px" y="0px" viewBox="0 0 100 125"><g transform="translate(0,-952.36218)"><path style="text-indent:0;text-transform:none;direction:ltr;block-progression:tb;baseline-shift:baseline;color:#000000;enable-background:accumulate;" d="m 20.718807,1046.3558 a 3.0003,3.0003 0 0 1 -2.718801,-3 l 0,-78.00001 c 0,-3.82611 3.173901,-7 7.000001,-7 l 50,0 c 3.8261,0 7,3.17389 7,7 l 0,78.00001 a 3.0003,3.0003 0 0 1 -4.7188,2.4687 l -27.2812,-18.8125 -27.2812,18.8125 a 3.0003,3.0003 0 0 1 -2,0.5313 z m 3.2812,-8.7188 24.2812,-16.75 a 3.0003,3.0003 0 0 1 3.4376,0 l 24.2812,16.75 0,-72.28121 c 0,-0.60591 -0.3941,-1 -1,-1 l -50,0 c -0.6059,0 -1,0.39409 -1,1 l 0,72.28121 z" fill="#000000" fill-opacity="1" stroke="none" marker="none" visibility="visible" display="inline" overflow="visible"/></g><text x="0" y="115" fill="#000000" font-size="5px" font-weight="bold" font-family="'Helvetica Neue', Helvetica, Arial-Unicode, Arial, Sans-serif">Created by Aybige</text><text x="0" y="120" fill="#000000" font-size="5px" font-weight="bold" font-family="'Helvetica Neue', Helvetica, Arial-Unicode, Arial, Sans-serif">from the Noun Project</text></svg>