<svg xmlns="http://www.w3.org/2000/svg" xmlns:xlink="http://www.w3.org/1999/xlink" viewBox="0 0 25 45" version="1.1" x="0px" y="0px"><title>Page 1 Copy</title><desc>Created with Sketch.</desc><g stroke="none" stroke-width="1" fill="none" fill-rule="evenodd"><path d="M3.89150943,0 C1.79372642,0 0,1.52443396 0,3.50235849 L0,33.8561321 C0,34.3039151 0.101179245,34.8757075 0.54740566,35.3032547 C0.993113208,35.7308019 1.53429245,35.8018868 1.94575472,35.8018868 C2.17665094,35.7977358 2.39976415,35.7266509 2.59018868,35.5953774 L12.4528302,29.0161321 L22.3154717,35.5953774 C22.5058962,35.7266509 22.7290094,35.7977358 22.9599057,35.8018868 C23.3713679,35.8018868 23.9125472,35.7308019 24.3582547,35.3032547 C24.8044811,34.8757075 24.9056604,34.3039151 24.9056604,33.8561321 L24.9056604,3.50235849 C24.9056604,1.52443396 23.111934,0 21.0141509,0 L3.89150943,0 Z" fill="#000000"/></g><text x="0" y="51" fill="#000000" font-size="5px" font-weight="bold" font-family="'Helvetica Neue', Helvetica, Arial-Unicode, Arial, Sans-serif">Created by AR Ehsan</text><text x="0" y="56" fill="#000000" font-size="5px" font-weight="bold" font-family="'Helvetica Neue', Helvetica, Arial-Unicode, Arial, Sans-serif">from the Noun Project</text></svg>