<svg xmlns="http://www.w3.org/2000/svg" xmlns:xlink="http://www.w3.org/1999/xlink" xml:space="preserve" version="1.1" style="shape-rendering:geometricPrecision;text-rendering:geometricPrecision;image-rendering:optimizeQuality;" viewBox="0 0 284 360" x="0px" y="0px" fill-rule="evenodd" clip-rule="evenodd"><defs><style type="text/css">
   
    .fil0 {fill:black}
   
  </style></defs><g><path class="fil0" d="M248 170l0 98c0,11 -9,20 -20,20l-59 0 0 -76c0,-1 -2,-3 -3,-3l-47 0c-2,0 -4,2 -4,3l0 76 -59 0c-11,0 -20,-9 -20,-20l0 -98 -22 0c-12,0 -18,-14 -10,-23l126 -142c6,-7 18,-7 24,0l127 142c8,9 1,23 -11,23l-22 0z"/></g><text x="0" y="303" fill="#000000" font-size="5px" font-weight="bold" font-family="'Helvetica Neue', Helvetica, Arial-Unicode, Arial, Sans-serif">Created by Saifurrijal</text><text x="0" y="308" fill="#000000" font-size="5px" font-weight="bold" font-family="'Helvetica Neue', Helvetica, Arial-Unicode, Arial, Sans-serif">from the Noun Project</text></svg>