<svg xmlns="http://www.w3.org/2000/svg" xmlns:xlink="http://www.w3.org/1999/xlink" version="1.1" x="0px" y="0px" viewBox="0 0 100 125" style="enable-background:new 0 0 100 100;" xml:space="preserve"><g><path d="M18.6,90.6h62.8c2.2,0,4-1.8,4-4v-13c0-13.1-9.3-24-21.7-26.5c4.5-3.9,7.3-9.5,7.3-15.9c0-11.6-9.4-21-21-21s-21,9.4-21,21   c0,6.3,2.8,11.9,7.1,15.7c-12.2,2.1-21.5,12.8-21.5,25.6v14C14.6,88.9,16.4,90.6,18.6,90.6z M50,18.4c7.2,0,13,5.8,13,13   s-5.8,13-13,13s-13-5.8-13-13S42.8,18.4,50,18.4z M22.6,72.7c0-9.9,8.1-18,18-18h17.8c10.5,0,19,8.5,19,19v9H22.6V72.7z"/></g><text x="0" y="115" fill="#000000" font-size="5px" font-weight="bold" font-family="'Helvetica Neue', Helvetica, Arial-Unicode, Arial, Sans-serif">Created by Agni</text><text x="0" y="120" fill="#000000" font-size="5px" font-weight="bold" font-family="'Helvetica Neue', Helvetica, Arial-Unicode, Arial, Sans-serif">from the Noun Project</text></svg>